<svg width="16" height="16" viewBox="0 0 16 16" fill="none" xmlns="http://www.w3.org/2000/svg">
<path fill-rule="evenodd" clip-rule="evenodd" d="M14.998 8.6269C15.3294 8.62819 15.599 8.36061 15.6003 8.02924C15.6016 7.69787 15.334 7.4282 15.0027 7.42691L8.60247 7.40193L8.62745 1.00174C8.62874 0.670373 8.36116 0.400698 8.02979 0.399405C7.69842 0.398112 7.42875 0.665691 7.42746 0.99706L7.40248 7.39725L1.00229 7.37228C0.670922 7.37099 0.401247 7.63857 0.399954 7.96993C0.398661 8.3013 0.66624 8.57098 0.997609 8.57227L7.3978 8.59724L7.37283 14.9974C7.37154 15.3288 7.63911 15.5985 7.97048 15.5998C8.30185 15.6011 8.57153 15.3335 8.57282 15.0021L8.59779 8.60193L14.998 8.6269Z" fill="white"/>
</svg>
